<?xml version="1.0" encoding="UTF-8" standalone="no"?>
<!-- Created with Inkscape (http://www.inkscape.org/) -->

<svg
   xmlns:dc="http://purl.org/dc/elements/1.1/"
   xmlns:cc="http://creativecommons.org/ns#"
   xmlns:rdf="http://www.w3.org/1999/02/22-rdf-syntax-ns#"
   xmlns:svg="http://www.w3.org/2000/svg"
   xmlns="http://www.w3.org/2000/svg"
   xmlns:sodipodi="http://sodipodi.sourceforge.net/DTD/sodipodi-0.dtd"
   xmlns:inkscape="http://www.inkscape.org/namespaces/inkscape"
   id="svg2"
   version="1.1"
   inkscape:version="0.48.5 r10040"
   width="37.878174"
   height="14.700221"
   xml:space="preserve"
   sodipodi:docname="LaTeX.svg"><metadata
     id="metadata8"><rdf:RDF><cc:Work
         rdf:about=""><dc:format>image/svg+xml</dc:format><dc:type
           rdf:resource="http://purl.org/dc/dcmitype/StillImage" /><dc:title /></cc:Work></rdf:RDF></metadata><defs
     id="defs6" /><sodipodi:namedview
     pagecolor="#ffffff"
     bordercolor="#666666"
     borderopacity="1"
     objecttolerance="10"
     gridtolerance="10"
     guidetolerance="10"
     inkscape:pageopacity="0"
     inkscape:pageshadow="2"
     inkscape:window-width="1920"
     inkscape:window-height="1017"
     id="namedview4"
     showgrid="false"
     inkscape:zoom="8"
     inkscape:cx="20.88138"
     inkscape:cy="1.1668148"
     inkscape:window-x="1592"
     inkscape:window-y="-8"
     inkscape:window-maximized="1"
     inkscape:current-layer="g10"
     inkscape:document-units="pt"
     fit-margin-top="0.5"
     fit-margin-left="0.5"
     fit-margin-bottom="0.5"
     fit-margin-right="0.5"
     showguides="true"
     inkscape:guide-bbox="true"
     units="pt" /><g
     id="g10"
     inkscape:groupmode="layer"
     inkscape:label="logo"
     transform="matrix(1.25,0,0,-1.25,-185.67583,893.32536)"><g
       transform="matrix(1.1720889,0,0,-1.1720889,148.65544,705.91431)"
       style="font-style:normal;font-variant:normal;font-weight:normal;font-stretch:normal;fill:#006699;fill-opacity:1;font-family:CMU Serif;-inkscape-font-specification:CMU Serif"
       id="text12"><path
         d="m 0.3286612,0 0,-0.30889897 0.23927509,0 c 0.35855699,3.1e-7 0.57933641,-0.0298964 0.66233901,-0.0896902 0.083,-0.059793 0.1245007,-0.18596713 0.1245021,-0.37852285 l 0,-5.25037028 c -1.4e-6,-0.1925489 -0.041502,-0.3187231 -0.1245021,-0.3785229 -0.083003,-0.059787 -0.30378202,-0.089684 -0.66233901,-0.08969 l -0.23927509,0 0,-0.308899 c 0.23248443,0.020073 0.7372824,0.030106 1.5143954,0.030099 0.8766299,6.8e-6 1.4345325,-0.010026 1.6737095,-0.030099 l 0,0.308899 -0.3286612,0 c -0.3056588,6.5e-6 -0.5282118,0.019921 -0.6676596,0.059743 -0.1394528,0.039835 -0.2207819,0.086352 -0.2439876,0.1395518 -0.02321,0.053212 -0.034814,0.1461959 -0.034812,0.2789514 l 0,5.30996116 c -2.3e-6,0.17269209 0.024878,0.28229638 0.07464,0.32881322 0.049758,0.0465176 0.1875361,0.0697762 0.4133348,0.0697759 l 0.8169405,0 c 0.3388931,3.1e-7 0.6295497,-0.0498106 0.8719707,-0.14943291 0.2424121,-0.0996214 0.4283796,-0.21251939 0.5579031,-0.33869434 0.1295136,-0.12617336 0.2374457,-0.30879653 0.3237967,-0.54787003 0.08634,-0.2390709 0.1427894,-0.4350208 0.1693471,-0.5878506 0.026547,-0.1528259 0.053099,-0.3653457 0.079657,-0.6375602 l 0.2490042,0 L 5.5191368,0 z"
         style="font-size:9.96259975000000080px;writing-mode:lr-tb;fill:#006699;fill-opacity:1;fill-rule:nonzero;stroke:none;font-family:CMU Serif;-inkscape-font-specification:CMU Serif"
         id="path3006"
         inkscape:connector-curvature="0" /></g><g
       transform="matrix(1.1720889,0,0,-1.1720889,-25.648242,-122.89905)"
       style="font-style:normal;font-variant:normal;font-weight:normal;font-stretch:normal;fill:#006699;fill-opacity:1;font-family:CMU Serif;-inkscape-font-specification:CMU Serif"
       id="text16"><path
         d="m 151.96939,-709.16699 0,-0.21623 c 0.41373,-0.009 0.67408,-0.16494 0.78106,-0.46715 l 1.44359,-4.17049 c 0.0186,-0.0557 0.0383,-0.0929 0.0593,-0.11152 0.0209,-0.0186 0.0569,-0.0279 0.108,-0.0279 0.028,10e-6 0.05,0.002 0.0663,0.007 0.0162,0.005 0.0302,0.0152 0.0418,0.0314 0.0116,0.0163 0.0198,0.029 0.0244,0.0383 0.005,0.009 0.0139,0.0302 0.028,0.0627 l 1.50637,4.35863 c 0.0372,0.11634 0.0929,0.19193 0.16728,0.22676 0.0743,0.0348 0.21615,0.0522 0.42543,0.0522 l 0.12557,0 0,0.21623 c -0.29299,-0.0139 -0.59754,-0.0209 -0.91365,-0.0209 -0.50213,0 -0.8369,0.007 -1.00432,0.0209 l 0,-0.21623 c 0.38592,0 0.57888,-0.0697 0.57888,-0.20921 0,-0.009 -0.007,-0.0418 -0.0208,-0.0977 l -0.36968,-1.06689 -1.72259,0 -0.32073,0.91365 c -0.009,0.0186 -0.0138,0.0534 -0.0138,0.1045 0,0.0976 0.0453,0.18129 0.13599,0.25103 0.0907,0.0697 0.21964,0.1046 0.38692,0.1046 l 0,0.21623 c -0.44622,-0.0139 -0.71353,-0.0209 -0.80192,-0.0209 -0.15338,0 -0.39046,0.007 -0.71126,0.0209 z m 1.40166,-1.80624 1.56914,0 -0.78808,-2.26657 z"
         style="font-size:6.97380017999999960px;writing-mode:lr-tb;fill:#006699;fill-opacity:1;fill-rule:nonzero;stroke:none;font-family:CMU Serif;-inkscape-font-specification:CMU Serif"
         id="path3009"
         inkscape:connector-curvature="0" /></g><path
       inkscape:connector-curvature="0"
       id="path3012"
       style="font-size:9.96259975000000080px;font-style:normal;font-variant:normal;font-weight:normal;font-stretch:normal;writing-mode:lr-tb;fill:#006699;fill-opacity:1;fill-rule:nonzero;stroke:none;font-family:CMU Serif;-inkscape-font-specification:CMU Serif"
       d="m 157.31221,711.19228 0.22165,2.62741 7.13459,0 0.22202,-2.62741 -0.29187,0 c -0.0312,0.35042 -0.0604,0.62683 -0.0877,0.82924 -0.0273,0.20241 -0.0741,0.39893 -0.14023,0.5896 -0.0662,0.19064 -0.14011,0.33271 -0.22183,0.42619 -0.0817,0.0934 -0.20039,0.17716 -0.35599,0.25105 -0.15562,0.0738 -0.33462,0.12056 -0.53703,0.14006 -0.20242,0.0195 -0.45543,0.0292 -0.75904,0.0292 -0.35826,-10e-6 -0.58016,-0.008 -0.66567,-0.0232 -0.0934,-0.0236 -0.15175,-0.0683 -0.17515,-0.13452 -0.0234,-0.0662 -0.035,-0.16934 -0.035,-0.3095 l 0,-6.15354 c 0,-0.15585 0.0156,-0.26489 0.0466,-0.32714 0.0311,-0.0622 0.13624,-0.11674 0.31537,-0.16339 0.17912,-0.0466 0.46717,-0.07 0.86416,-0.07 l 0.46683,0 0,-0.36206 c -0.31907,0.0233 -1.05862,0.0349 -2.21867,0.0349 -1.15198,0 -1.88761,-0.0117 -2.20692,-0.0349 l 0,0.36206 0.46719,0 c 0.39698,0 0.68504,0.0233 0.86417,0.07 0.17912,0.0466 0.28424,0.10115 0.31537,0.16339 0.0311,0.0622 0.0466,0.17129 0.0466,0.32714 l 0,6.15354 c -1e-5,0.10901 -0.004,0.1869 -0.0117,0.2336 -0.008,0.0466 -0.0293,0.0896 -0.0643,0.12846 -0.035,0.0389 -0.0914,0.0662 -0.16927,0.0818 -0.0778,0.0156 -0.288,0.0233 -0.63057,0.0233 -0.30362,-2e-5 -0.55663,-0.009 -0.75904,-0.0292 -0.20242,-0.0195 -0.38148,-0.0662 -0.5372,-0.14005 -0.15574,-0.0738 -0.27446,-0.15758 -0.35619,-0.25105 -0.0817,-0.0935 -0.15566,-0.23556 -0.22183,-0.4262 -0.0661,-0.19066 -0.11287,-0.38718 -0.14004,-0.58959 -0.0272,-0.20242 -0.0564,-0.47882 -0.0874,-0.82924 z" /><path
       inkscape:connector-curvature="0"
       id="path3014"
       style="font-size:9.96259975000000080px;font-style:normal;font-variant:normal;font-weight:normal;font-stretch:normal;writing-mode:lr-tb;fill:#006699;fill-opacity:1;fill-rule:nonzero;stroke:none;font-family:CMU Serif;-inkscape-font-specification:CMU Serif"
       d="m 163.76327,703.40018 0,0.36205 0.28046,0 c 0.42025,0 0.67902,0.035 0.77632,0.10514 0.0973,0.0701 0.14592,0.21797 0.14592,0.44366 l 0,6.11862 c 0,0.22592 -0.0486,0.37387 -0.14592,0.44385 -0.0973,0.07 -0.35607,0.1049 -0.77632,0.1049 l -0.28046,0 0,0.36205 6.5744,0 0.32678,-2.62741 -0.29185,0 c -0.0544,0.44378 -0.11663,0.79413 -0.18674,1.05107 -0.0701,0.25693 -0.18881,0.48464 -0.35618,0.68313 -0.16737,0.19848 -0.38926,0.33664 -0.66567,0.41444 -0.27642,0.0778 -0.63639,0.11674 -1.07993,0.11674 l -1.50667,0 c -0.26466,-10e-6 -0.42615,-0.0272 -0.48446,-0.0816 -0.0584,-0.0544 -0.0874,-0.18281 -0.0874,-0.38521 l 0,-2.80274 1.05088,0 c 0.53715,0 0.88162,0.0934 1.03343,0.28027 0.15181,0.18684 0.22772,0.54884 0.22772,1.086 l 0.29186,0 0,-3.09423 -0.29186,0 c 0,0.5293 -0.076,0.88933 -0.22772,1.0801 -0.15181,0.19077 -0.49628,0.28616 -1.03343,0.28617 l -1.05088,0 0,-3.11776 c -1e-5,-0.20241 0.0292,-0.33088 0.0874,-0.38541 0.0582,-0.0545 0.2198,-0.0818 0.48446,-0.0818 l 1.55335,0 c 0.33473,0 0.62468,0.0213 0.86986,0.0641 0.24518,0.0428 0.4534,0.11867 0.6247,0.22771 0.17128,0.109 0.3153,0.22581 0.43208,0.3503 0.11674,0.12449 0.216,0.29963 0.29773,0.52545 0.0817,0.2258 0.14593,0.44377 0.19261,0.65391 0.0466,0.21013 0.0974,0.48648 0.15199,0.82906 l 0.29185,0 -0.4907,-3.01263 z" /><path
       inkscape:connector-curvature="0"
       id="path3016"
       style="font-size:9.96259975000000080px;font-style:normal;font-variant:normal;font-weight:normal;font-stretch:normal;writing-mode:lr-tb;fill:#006699;fill-opacity:1;fill-rule:nonzero;stroke:none;font-family:CMU Serif;-inkscape-font-specification:CMU Serif"
       d="m 170.14566,705.91431 0,0.36205 c 0.35826,0 0.66775,0.0545 0.92848,0.16339 0.26073,0.10889 0.43006,0.20425 0.50798,0.28598 0.0779,0.0817 0.16357,0.18874 0.25693,0.32107 l 1.91506,2.8259 -2.14882,3.2464 c -0.10877,0.16344 -0.23722,0.27243 -0.38523,0.32696 -0.148,0.0545 -0.38154,0.0818 -0.70059,0.0818 l -0.22201,0 0,0.36204 c 0.42834,-0.0236 0.93437,-0.0353 1.51808,-0.0353 0.86428,-10e-6 1.43254,0.0117 1.70481,0.0353 l 0,-0.36204 c -0.23354,-0.008 -0.41843,-0.0488 -0.55467,-0.12277 -0.13626,-0.074 -0.20438,-0.14986 -0.20438,-0.22753 0,-0.0312 0.0273,-0.0895 0.0819,-0.17534 l 1.50632,-2.25358 1.33099,1.97349 c 0.0701,0.10877 0.10514,0.19825 0.10514,0.26834 -1e-5,0.14016 -0.0642,0.2628 -0.19262,0.36794 -0.12841,0.10514 -0.30546,0.16159 -0.53115,0.16945 l 0,0.36204 c 0.31122,-0.0236 0.8094,-0.0353 1.49456,-0.0353 0.0858,-10e-6 0.20062,0.002 0.34459,0.006 0.14397,0.004 0.31133,0.009 0.50211,0.0176 0.19076,0.008 0.34055,0.0117 0.44937,0.0117 l 0,-0.36206 c -0.78613,-0.008 -1.35048,-0.26086 -1.69305,-0.75903 l -1.59968,-2.34732 2.46384,-3.72498 c 0.11662,-0.17106 0.2489,-0.28384 0.3968,-0.33836 0.14788,-0.0545 0.38148,-0.0818 0.70078,-0.0818 l 0.222,0 0,-0.36206 c -0.49059,0.0233 -0.99661,0.0349 -1.51807,0.0349 -0.86429,0 -1.43255,-0.0117 -1.70481,-0.0349 l 0,0.36206 c 0.23353,0.008 0.41843,0.0487 0.55467,0.12258 0.13624,0.0738 0.20437,0.1498 0.20438,0.22772 -1e-5,0.008 -0.0195,0.0506 -0.0585,0.12828 l -1.84521,2.79098 -1.65813,-2.45208 c -0.0777,-0.12472 -0.1165,-0.21821 -0.1165,-0.28046 0,-0.12448 0.0622,-0.24315 0.18673,-0.356 0.12449,-0.11287 0.30742,-0.17318 0.54879,-0.18102 l 0,-0.36206 c -0.28034,0.0233 -0.77853,0.0349 -1.49456,0.0349 -0.0236,0 -0.45566,-0.0117 -1.29642,-0.0349 z" /></g></svg>
