<?xml version="1.0" encoding="UTF-8" standalone="no"?>
<!-- Created with Inkscape (http://www.inkscape.org/) -->
<svg xmlns:inkscape="http://www.inkscape.org/namespaces/inkscape" xmlns:rdf="http://www.w3.org/1999/02/22-rdf-syntax-ns#" xmlns="http://www.w3.org/2000/svg" xmlns:sodipodi="http://sodipodi.sourceforge.net/DTD/sodipodi-0.dtd" xmlns:cc="http://creativecommons.org/ns#" xmlns:xlink="http://www.w3.org/1999/xlink" xmlns:dc="http://purl.org/dc/elements/1.1/" xmlns:svg="http://www.w3.org/2000/svg" xmlns:ns1="http://sozi.baierouge.fr" id="svg2" sodipodi:docname="cornues.svg" viewBox="0 0 788.23 829.02" version="1.1" inkscape:version="0.47+devel r">
  <defs id="defs4">
    <linearGradient id="linearGradient4021">
      <stop id="stop4023" style="stop-color:#817e7e" offset="0"/>
      <stop id="stop4029" style="stop-color:#f4ebeb;stop-opacity:.98824" offset=".5"/>
      <stop id="stop4025" style="stop-color:#241b1b;stop-opacity:.97826" offset="1"/>
    </linearGradient>
    <linearGradient id="linearGradient3941">
      <stop id="stop3943" style="stop-color:#f9faf8" offset="0"/>
      <stop id="stop3949" style="stop-color:#ccceca;stop-opacity:.67816" offset=".80581"/>
      <stop id="stop3945" style="stop-color:#a0a39d;stop-opacity:.98551" offset="1"/>
    </linearGradient>
    <linearGradient id="linearGradient3903" inkscape:collect="always">
      <stop id="stop3905" style="stop-color:#241b1b" offset="0"/>
      <stop id="stop3907" style="stop-color:#241b1b;stop-opacity:0" offset="1"/>
    </linearGradient>
    <linearGradient id="linearGradient3795">
      <stop id="stop3797" style="stop-color:#2a9cf9" offset="0"/>
      <stop id="stop3799" style="stop-color:#afe2eb" offset="1"/>
    </linearGradient>
    <linearGradient id="linearGradient3781">
      <stop id="stop3783" style="stop-color:#1a5b78" offset="0"/>
      <stop id="stop3785" style="stop-color:#136890" offset="1"/>
    </linearGradient>
    <linearGradient id="linearGradient3765">
      <stop id="stop3767" style="stop-color:#4ec7ff" offset="0"/>
      <stop id="stop3769" style="stop-color:#177ba9" offset="1"/>
    </linearGradient>
    <filter id="filter3823" height="1.39" width="1.1239" color-interpolation-filters="sRGB" y="-.19499" x="-.061935" inkscape:collect="always">
      <feGaussianBlur id="feGaussianBlur3825" stdDeviation="7.4685526" inkscape:collect="always"/>
    </filter>
    <filter id="filter3839" height="1.2838" width="1.5019" color-interpolation-filters="sRGB" y="-.14188" x="-.25093" inkscape:collect="always">
      <feGaussianBlur id="feGaussianBlur3841" stdDeviation="3.0779165" inkscape:collect="always"/>
    </filter>
    <filter id="filter3851" inkscape:collect="always" color-interpolation-filters="sRGB">
      <feGaussianBlur id="feGaussianBlur3853" stdDeviation="6.2732023" inkscape:collect="always"/>
    </filter>
    <filter id="filter3859" height="1.2437" width="1.0774" color-interpolation-filters="sRGB" y="-.12187" x="-.038709" inkscape:collect="always">
      <feGaussianBlur id="feGaussianBlur3861" stdDeviation="4.6678453" inkscape:collect="always"/>
    </filter>
    <filter id="filter3867" height="1.1569" width="1.2557" color-interpolation-filters="sRGB" y="-.078456" x="-.12783" inkscape:collect="always">
      <feGaussianBlur id="feGaussianBlur3869" stdDeviation="1.7079957" inkscape:collect="always"/>
    </filter>
    <linearGradient id="linearGradient3895" y2="264.67" gradientUnits="userSpaceOnUse" x2="306.19" gradientTransform="matrix(1.8213 0 0 1.7505 -239.14 -356.63)" y1="613.26" x1="296.78" inkscape:collect="always">
      <stop id="stop3891" style="stop-color:#3aacfa" offset="0"/>
      <stop id="stop3897" style="stop-color:#2699d7;stop-opacity:.99608" offset=".83216"/>
      <stop id="stop3899" style="stop-color:#78c1e7;stop-opacity:.99216" offset=".98972"/>
      <stop id="stop3893" style="stop-color:#cae9f7;stop-opacity:.99216" offset="1"/>
    </linearGradient>
    <filter id="filter4006" inkscape:collect="always" color-interpolation-filters="sRGB">
      <feGaussianBlur id="feGaussianBlur4008" stdDeviation="0.64972935" inkscape:collect="always"/>
    </filter>
    <linearGradient id="linearGradient4041" y2="501.34" gradientUnits="userSpaceOnUse" x2="451.55" gradientTransform="matrix(1.8213 0 0 1.7505 -239.14 -356.63)" y1="501.34" x1="127.51" inkscape:collect="always">
      <stop id="stop3805" style="stop-color:#d4f6f7" offset="0"/>
      <stop id="stop3811" style="stop-color:#bdf0f2" offset=".5"/>
      <stop id="stop3813" style="stop-color:#76eaf0" offset=".75"/>
      <stop id="stop3807" style="stop-color:#465758" offset="1"/>
    </linearGradient>
    <linearGradient id="linearGradient4098" y2="527.91" xlink:href="#linearGradient3781" gradientUnits="userSpaceOnUse" x2="410.06" y1="529.93" x1="166.1" inkscape:collect="always"/>
    <linearGradient id="linearGradient4100" y2="522.63" xlink:href="#linearGradient3795" gradientUnits="userSpaceOnUse" x2="402.47" y1="522.63" x1="172.72" inkscape:collect="always"/>
    <linearGradient id="linearGradient4102" y2="297.07" xlink:href="#linearGradient3903" gradientUnits="userSpaceOnUse" x2="292.27" y1="332.78" x1="286.18" inkscape:collect="always"/>
    <linearGradient id="linearGradient4104" y2="584.74" xlink:href="#linearGradient3765" gradientUnits="userSpaceOnUse" x2="290.42" y1="654.44" x1="291.93" inkscape:collect="always"/>
    <radialGradient id="radialGradient4106" xlink:href="#linearGradient3941" gradientUnits="userSpaceOnUse" cy="314.87" cx="288.79" gradientTransform="matrix(.95889 0 0 .36279 11.873 202.26)" r="47.676" inkscape:collect="always"/>
    <linearGradient id="linearGradient4108" y2="359.38" xlink:href="#linearGradient4021" gradientUnits="userSpaceOnUse" x2="320.16" y1="359.38" x1="257.31" inkscape:collect="always"/>
    <linearGradient id="linearGradient4133" y2="359.38" xlink:href="#linearGradient4021" gradientUnits="userSpaceOnUse" x2="320.16" gradientTransform="matrix(1.8213 0 0 1.7505 -239.14 -356.63)" y1="359.38" x1="257.31" inkscape:collect="always"/>
    <linearGradient id="linearGradient4142" y2="527.91" xlink:href="#linearGradient3781" gradientUnits="userSpaceOnUse" x2="410.06" gradientTransform="matrix(1.8213 0 0 1.7505 -239.14 -356.63)" y1="529.93" x1="166.1" inkscape:collect="always"/>
  </defs>
  <sodipodi:namedview id="base" bordercolor="#666666" inkscape:pageshadow="2" inkscape:window-y="27" pagecolor="#ffffff" inkscape:snap-smooth-nodes="true" inkscape:window-maximized="0" inkscape:zoom="0.28697344" inkscape:snap-nodes="false" inkscape:window-height="824" showgrid="false" borderopacity="1.0" inkscape:current-layer="layer2" inkscape:cx="731.51454" inkscape:cy="833.41148" inkscape:object-nodes="true" inkscape:window-x="203" inkscape:window-width="1412" inkscape:object-paths="true" inkscape:pageopacity="0.0" inkscape:document-units="px"/>
  <g id="layer2" inkscape:label="dessin" inkscape:groupmode="layer" transform="translate(36.408 -60.696)">
    <path id="path3966" style="opacity:.59004;fill:url(#linearGradient4041)" d="m217.12 214.13 1.8398 157.37s-68.072 76.035-114.07 139.69c-45.989 63.66-123.26 152.08-110.38 206.89 12.877 54.82 147.18 111.4 270.45 109.63 123.26-1.77 316.44-30.06 318.28-100.79s-88.31-185.66-121.43-229.87c-33.11-44.21-101.18-123.78-101.18-123.78l-3.6796-159.14s-27.597 14.146-69.912 14.146-69.912-14.146-69.912-14.146z" inkscape:export-ydpi="90" inkscape:export-filename="/media/disk/Dropbox/Portfolio (1)/A COPIER SUR TON PC ou sur le tien/M6/cornues.png" inkscape:connector-curvature="0" inkscape:export-xdpi="90"/>
    <g id="g4046" inkscape:export-ydpi="90" inkscape:export-xdpi="90" inkscape:export-filename="/media/disk/Dropbox/Portfolio (1)/A COPIER SUR TON PC ou sur le tien/M6/cornues.png" transform="matrix(1.0193 0 0 .97970 275.35 -97.577)">
      <path id="path3964" sodipodi:rx="144.70435" sodipodi:ry="45.961941" style="color:#000000;filter:url(#filter3823);fill:#000000" sodipodi:type="arc" d="m433.86 608.91c0 25.384-64.786 45.962-144.7 45.962-79.918 0-144.7-20.578-144.7-45.962s64.786-45.962 144.7-45.962c79.918 0 144.7 20.578 144.7 45.962z" transform="matrix(1.0949 0 0 1.1946 -27.22 -91.679)" sodipodi:cy="608.90521" sodipodi:cx="289.15616"/>
      <path id="path3968" sodipodi:nodetypes="ccccccccccccccsccccccc" style="fill:url(#linearGradient4098)" inkscape:connector-curvature="0" d="m320.16 384.59c-20.04 6.35-42.06 6.51-62.16 0.16 0.29535 26.623 0.5955 5.2459 0.875 31.875 0.006 1.2834-0.46958 2.5635-1.3125 3.5312-27.411 31.834-52.856 65.234-76.938 99.75-17.564 25.17-36.956 49.209-44.688 77.531-0.0103 0.0209-0.0207 0.0417-0.0312 0.0625-2.7636 9.7018-0.36414 20.52 6.75 27.375 0.0316 0.0308 0.0629 0.0621 0.0937 0.0937 19.862 20.02 48.023 30.265 75.875 37.5 41.373 10.675 85.409 6.8178 128.31 1.0625v-0.0312c28.981-4.768 58.19-10.111 82.5-24.812-0.00003-0.0104-0.00003-0.0208 0-0.0312 4.5579-2.7227 8.8864-6.5506 11.625-10.781 2.7386-4.2307 3.9643-8.6335 3.0312-13.531-0.0253-0.1242-0.0461-0.24931-0.0625-0.375-3.0304-25.717-17.046-49.326-30.906-72.375-0.0239-0.0398-0.0386-0.0852-0.0625-0.125-26.805-42.168-58.009-81.435-89.844-120.41-0.75007-0.90889-1.1862-2.072-1.2188-3.25-0.64083-27.08-1.2331-6.1494-1.8438-33.219z"/>
      <path id="path3970" sodipodi:nodetypes="ccccccccczsccscccccccc" style="filter:url(#filter3851);fill:url(#linearGradient4100)" inkscape:connector-curvature="0" d="m308.76 387.93c-15.75 1.6761-28.556 1.9621-44.482-1.3589 0.21917 26.636 0.31563 3.3544 0.52303 29.996 0.005 1.284-0.34845 2.5647-0.97395 3.533-20.341 31.85-39.222 65.266-57.092 99.798-13.034 25.182-27.423 49.233-33.161 77.569-0.007 0.0209-0.0154 0.0417-0.0232 0.0625-2.0508 9.7065-0.27021 20.53 5.0089 27.388 0.0235 0.0308 0.0466 0.0621 0.0696 0.0937 11.203 12.958 20.695 21.066 48.728 28.023 28.032 6.9574 68.254 7.0598 102.79 2.5782 20.824-2.7021 47.44-9.1506 61.22-16.876-0.00003-0.0104-0.00003-0.0208 0-0.0312 3.3822-2.724 6.5943-6.5538 8.6265-10.786 2.0322-4.2327 2.9418-8.6377 2.2494-13.538-0.0188-0.12426-0.0342-0.24943-0.0464-0.37518-2.2487-25.729-12.649-49.35-22.934-72.41-0.0178-0.0398-0.0286-0.0852-0.0464-0.12506-19.891-42.189-43.047-81.475-66.67-120.46-0.5566-0.90934-0.88028-2.073-0.90439-3.2516-0.47553-27.093 0.0951-3.1219-0.35803-30.204z"/>
      <path id="path3972" sodipodi:rx="35.71759" sodipodi:ry="8.7116079" style="color:#000000;fill:url(#linearGradient4102)" sodipodi:type="arc" d="m324.07 315.36c0 4.8113-15.991 8.7116-35.718 8.7116-19.726 0-35.718-3.9003-35.718-8.7116s15.991-8.7116 35.718-8.7116c19.726 0 35.718 3.9003 35.718 8.7116z" transform="matrix(1 0 0 .9375 0 20.254)" sodipodi:cy="315.3602" sodipodi:cx="288.35422"/>
      <path id="path3974" sodipodi:rx="144.70435" sodipodi:ry="45.961941" style="opacity:.7;color:#000000;filter:url(#filter3859);fill:url(#linearGradient4104)" sodipodi:type="arc" d="m433.86 608.91c0 25.384-64.786 45.962-144.7 45.962-79.918 0-144.7-20.578-144.7-45.962s64.786-45.962 144.7-45.962c79.918 0 144.7 20.578 144.7 45.962z" transform="matrix(1 0 0 1.087 0 -51.618)" sodipodi:cy="608.90521" sodipodi:cx="289.15616"/>
      <path id="path3976" sodipodi:rx="10.606602" sodipodi:ry="27.779196" style="color:#000000;filter:url(#filter3867);fill:#ffffff" sodipodi:type="arc" d="m105.06 429.6c0 15.342-4.7487 27.779-10.607 27.779-5.8579 0-10.607-12.437-10.607-27.779s4.7487-27.779 10.607-27.779c5.8579 0 10.607 12.437 10.607 27.779z" transform="matrix(.74812 .48690 -.42145 .93332 324.55 94.283)" sodipodi:cy="429.60315" sodipodi:cx="94.449265"/>
      <path id="path3978" sodipodi:rx="10.606602" sodipodi:ry="27.779196" style="color:#000000;filter:url(#filter3839);fill:#ffffff" sodipodi:type="arc" d="m105.06 429.6c0 15.342-4.7487 27.779-10.607 27.779-5.8579 0-10.607-12.437-10.607-27.779s4.7487-27.779 10.607-27.779c5.8579 0 10.607 12.437 10.607 27.779z" transform="matrix(.69501 .29687 -.29983 .73496 329.84 101.99)" sodipodi:cy="429.60315" sodipodi:cx="94.449265"/>
      <path id="path3980" sodipodi:nodetypes="csssssssssssssccssscsssssccsscc" style="opacity:.64751;block-progression:tb;text-indent:0;filter:url(#filter4006);color:#000000;text-transform:none;fill:url(#radialGradient4106)" inkscape:connector-curvature="0" d="m293.58 299.25c4.5514 0.12881 9.3278 0.24858 13.379 0.77697 5.2851 0.68931 10.077 1.7034 14.201 3.0024 4.1238 1.299 7.6027 2.8509 10.281 4.932 2.6782 2.0811 4.6532 4.9568 4.3302 8.2969-0.32294 3.3401-2.8562 6.2388-5.9368 8.3199-3.0807 2.0811-6.8597 3.633-11.235 4.932-8.7499 2.598-19.953 4.0562-32.144 4.0562-12.19 0-23.083-1.4582-31.33-4.0562-4.1238-1.299-7.6317-2.8509-10.31-4.932-2.6782-2.0811-4.6509-4.9799-4.328-8.3199 0.32294-3.34 2.8539-6.2158 5.9346-8.2969s6.8887-3.633 11.264-4.932c6.6932-1.9873 14.805-3.3077 23.705-3.8187 2.7349-0.15701-1.2073-0.23758 1.6582-0.23758l0.0765 9.2646c-3.7487 0.11199-7.3905 0.29917-9.7411 0.60179-4.7649 0.61344-9.0159 1.4835-12.472 2.5098-3.4565 1.0263-6.0905 2.2331-7.5611 3.2266-1.4707 0.9935-1.6214 1.4742-1.6415 1.6824-0.0201 0.20827 0.0354 0.71198 1.3139 1.7055 1.2786 0.9935 3.6792 2.2003 6.9372 3.2266 6.5161 2.0526 16.331 3.4801 27.355 3.4801s21.144-1.4275 28.057-3.4801c3.4565-1.0263 6.0905-2.2331 7.5612-3.2266 1.4707-0.99349 1.5946-1.4972 1.6147-1.7055 0.0201-0.20827-0.009-0.68892-1.2872-1.6824-1.2786-0.99349-3.6792-2.2002-6.9372-3.2266-3.258-1.0263-7.348-1.8963-12.002-2.5098-4.6535-0.61344-5.0792-0.75252-10.591-0.75252z"/>
      <path id="rect4014" d="m257.31 330.38c17.886 5.8187 39.891 3.5219 62.41-1.0835l0.44026 55.295c-21.96 6.83-42.53 6.08-62.16 0.15z" sodipodi:nodetypes="ccccc" style="opacity:.49808;color:#000000;fill:url(#linearGradient4108)" inkscape:connector-curvature="0"/>
      <rect id="rect4016" style="opacity:.64751;color:#000000;fill:#241b1b" height="3.0491" width=".43558" y="386.36" x="286.61"/>
      <rect id="rect4018" style="opacity:.64751;color:#000000;fill:#241b1b" height="3.4846" width=".43558" y="385.92" x="290.1"/>
      <path id="path4044" sodipodi:rx="28.336168" sodipodi:ry="6.7760406" style="opacity:.68199;color:#000000;fill:#135f9b" sodipodi:type="arc" d="m317.86 382.77c0 3.7423-12.687 6.776-28.336 6.776-15.65 0-28.336-3.0337-28.336-6.776s12.687-6.776 28.336-6.776c15.65 0 28.336 3.0337 28.336 6.776z" sodipodi:cy="382.7662" sodipodi:cx="289.52173"/>
    </g>
    <path id="path4062" sodipodi:rx="144.70435" sodipodi:ry="45.961941" style="color:#000000;filter:url(#filter3823);fill:#000000" sodipodi:type="arc" d="m433.86 608.91c0 25.384-64.786 45.962-144.7 45.962-79.918 0-144.7-20.578-144.7-45.962s64.786-45.962 144.7-45.962c79.918 0 144.7 20.578 144.7 45.962z" transform="matrix(1.9941 0 0 2.091 -288.72 -517.12)" sodipodi:cy="608.90521" sodipodi:cx="289.15616"/>
    <path id="path4064" sodipodi:nodetypes="ccccccccccccccsccccccc" style="fill:url(#linearGradient4142)" inkscape:connector-curvature="0" d="m343.96 316.59c-36.488 11.107-76.596 11.386-113.2 0.27351 0.53792 46.603 1.0846 9.1828 1.5936 55.796 0.0109 2.2465-0.85524 4.4873-2.3904 6.1814-49.924 55.725-96.267 114.19-140.13 174.61-31.99 44.059-67.307 86.139-81.389 135.72-0.018759 0.0366-0.037701 0.073-0.056824 0.1094-5.0334 16.983-0.66321 35.921 12.294 47.919 0.05755 0.0539 0.11456 0.10871 0.17066 0.16402 36.175 35.044 87.464 52.978 138.19 65.643 75.353 18.686 155.55 11.934 233.69 1.8599v-0.0546c52.783-8.3462 105.98-17.699 150.26-43.434-0.00005-0.0182-0.00005-0.0364 0-0.0546 8.3013-4.766 16.185-11.467 21.173-18.872 4.9878-7.4057 7.2202-15.113 5.5208-23.686-0.0461-0.21741-0.084-0.43641-0.11383-0.65643-5.5192-45.016-31.045-86.344-56.289-126.69-0.0435-0.0697-0.0703-0.14914-0.11383-0.21881-48.821-73.814-105.65-142.55-163.63-210.77-1.3661-1.591-2.1605-3.627-2.2197-5.689-1.1671-47.402-2.2458-10.764-3.358-58.149z"/>
    <path id="path4066" style="filter:url(#filter3851);fill:url(#linearGradient4100)" d="m308.76 387.93c-15.75 1.6761-28.556 1.9621-44.482-1.3589 0.21917 26.636 0.31563 3.3544 0.52303 29.996 0.005 1.284-0.34845 2.5647-0.97395 3.533-20.341 31.85-39.222 65.266-57.092 99.798-13.034 25.182-27.423 49.233-33.161 77.569-0.007 0.0209-0.0154 0.0417-0.0232 0.0625-2.0508 9.7065-0.27021 20.53 5.0089 27.388 0.0235 0.0308 0.0466 0.0621 0.0696 0.0937 11.203 12.958 20.695 21.066 48.728 28.023 28.032 6.9574 68.254 7.0598 102.79 2.5782 20.824-2.7021 47.44-9.1506 61.22-16.876-0.00003-0.0104-0.00003-0.0208 0-0.0312 3.3822-2.724 6.5943-6.5538 8.6265-10.786 2.0322-4.2327 2.9418-8.6377 2.2494-13.538-0.0188-0.12426-0.0342-0.24943-0.0464-0.37518-2.2487-25.729-12.649-49.35-22.934-72.41-0.0178-0.0398-0.0286-0.0852-0.0464-0.12506-19.891-42.189-43.047-81.475-66.67-120.46-0.5566-0.90934-0.88028-2.073-0.90439-3.2516-0.47553-27.093 0.0951-3.1219-0.35803-30.204z" sodipodi:nodetypes="ccccccccczsccscccccccc" inkscape:connector-curvature="0" transform="matrix(1.8213 0 0 1.7505 -239.14 -356.63)"/>
    <path id="path4068" sodipodi:rx="35.71759" sodipodi:ry="8.7116079" style="color:#000000;fill:url(#linearGradient4102)" sodipodi:type="arc" d="m324.07 315.36c0 4.8113-15.991 8.7116-35.718 8.7116-19.726 0-35.718-3.9003-35.718-8.7116s15.991-8.7116 35.718-8.7116c19.726 0 35.718 3.9003 35.718 8.7116z" transform="matrix(1.8213 0 0 1.6411 -239.14 -321.18)" sodipodi:cy="315.3602" sodipodi:cx="288.35422"/>
    <path id="path4070" sodipodi:rx="144.70435" sodipodi:ry="45.961941" style="opacity:.7;color:#000000;filter:url(#filter3859);fill:url(#linearGradient4104)" sodipodi:type="arc" d="m433.86 608.91c0 25.384-64.786 45.962-144.7 45.962-79.918 0-144.7-20.578-144.7-45.962s64.786-45.962 144.7-45.962c79.918 0 144.7 20.578 144.7 45.962z" transform="matrix(1.8213 0 0 1.9027 -239.14 -446.99)" sodipodi:cy="608.90521" sodipodi:cx="289.15616"/>
    <path id="path4072" sodipodi:rx="10.606602" sodipodi:ry="27.779196" style="color:#000000;filter:url(#filter3867);fill:#ffffff" sodipodi:type="arc" d="m105.06 429.6c0 15.342-4.7487 27.779-10.607 27.779-5.8579 0-10.607-12.437-10.607-27.779s4.7487-27.779 10.607-27.779c5.8579 0 10.607 12.437 10.607 27.779z" transform="matrix(1.3625 .85230 -.76759 1.6337 351.96 -191.6)" sodipodi:cy="429.60315" sodipodi:cx="94.449265"/>
    <path id="path4074" sodipodi:rx="10.606602" sodipodi:ry="27.779196" style="color:#000000;filter:url(#filter3839);fill:#ffffff" sodipodi:type="arc" d="m105.06 429.6c0 15.342-4.7487 27.779-10.607 27.779-5.8579 0-10.607-12.437-10.607-27.779s4.7487-27.779 10.607-27.779c5.8579 0 10.607 12.437 10.607 27.779z" transform="matrix(1.2658 .51966 -.54607 1.2865 361.6 -178.11)" sodipodi:cy="429.60315" sodipodi:cx="94.449265"/>
    <rect id="rect4080" style="opacity:.64751;color:#000000;fill:#241b1b" height="5.3373" width=".79332" y="319.68" x="282.86"/>
    <rect id="rect4082" style="opacity:.64751;color:#000000;fill:#241b1b" height="6.0998" width=".79332" y="318.92" x="289.21"/>
    <path id="path4078" d="m229.49 221.69c32.576 10.186 72.653 6.165 113.67-1.8966l0.80184 96.793c-39.983 11.973-77.45 10.648-113.2 0.27351z" sodipodi:nodetypes="ccccc" style="opacity:.49808;color:#000000;fill:url(#linearGradient4133)" inkscape:connector-curvature="0"/>
    <path id="path3874" style="stroke-width:.53566;stroke-opacity:.51587;block-progression:tb;text-indent:0;color:#000000;stroke:#000000;text-transform:none;fill:url(#linearGradient3895)" d="m314.53 88.096c11.175-7.4188 26.676-9.6276 40.922-9.6276 20.515 0 42.424 0.6775 63.119 1.3129-14.157 12.706-20.02 32.833-20.603 60.884-0.58362 28.047 7.4772 46.002 19.522 56.234s26.603 12.035 36.71 12.035c9.5446 0 23.331-0.79894 35.231-9.8464s20.303-25.487 22.083-52.296c1.8812-28.327-6.4708-49.691-19.01-63.838 12.054 0.0088 22.878-0.32242 30.962 0.43762 11.434 1.0751 18.465 3.5429 26.636 14.168 6.5038 8.4571 10.278 28.096 11.099 50.764 0.82045 22.668-0.56916 48.252-0.56916 70.183h18.213c0-21.201 1.4303-46.992 0.56916-70.785-0.86118-23.793-3.2322-45.719-14.684-60.61-10.902-14.176-25.129-19.764-39.499-21.115-14.37-1.3511-29.235 0.31775-46.898-0.71113-4.6471-0.27069-8.9502-0.18951-13.261-0.1094-4.37-1.2458-8.7613-2.0787-13.091-2.0787-25.276 0-63.498-2.1334-96.529-2.1334-16.045 0.000018-35.249 2.0482-51.281 12.691s-27.971 33.041-27.875 62.294l-0.30018 580.36c6.7459 3.5107 13.492 6.3162 20.238 0l-0.42-580.92c0.37865-26.774 7.5356-39.862 18.711-47.281zm147.01-5.5249c0.0164-0.000858 0.0397 0.000858 0.0568 0 15.896 5.5007 34.337 24.301 31.759 63.127-1.5853 23.871-8.3043 34.419-15.196 39.659-6.8921 5.24-15.555 6.072-23.961 6.072-7.843 0-17.341-1.4545-24.644-7.6583s-13.892-17.899-13.375-42.723c0.53821-25.865 5.9461-40.522 14.798-48.466 6.639-5.9586 16.402-9.3 30.564-10.011z" inkscape:export-ydpi="90" sodipodi:nodetypes="sscssssscsssccsssscsssccccsccsssssscc" inkscape:export-filename="/media/disk/Dropbox/Portfolio (1)/A COPIER SUR TON PC ou sur le tien/M6/cornues.png" inkscape:connector-curvature="0" inkscape:export-xdpi="90"/>
    <path id="path4076" style="opacity:.64751;block-progression:tb;text-indent:0;filter:url(#filter4006);color:#000000;text-transform:none;fill:url(#radialGradient4106)" d="m293.58 299.25c4.5514 0.12881 9.3278 0.24858 13.379 0.77697 5.2851 0.68931 10.077 1.7034 14.201 3.0024 4.1238 1.299 7.6027 2.8509 10.281 4.932 2.6782 2.0811 4.6532 4.9568 4.3302 8.2969-0.32294 3.3401-2.8562 6.2388-5.9368 8.3199-3.0807 2.0811-6.8597 3.633-11.235 4.932-8.7499 2.598-19.953 4.0562-32.144 4.0562-12.19 0-23.083-1.4582-31.33-4.0562-4.1238-1.299-7.6317-2.8509-10.31-4.932-2.6782-2.0811-4.6509-4.9799-4.328-8.3199 0.32294-3.34 2.8539-6.2158 5.9346-8.2969s6.8887-3.633 11.264-4.932c6.6932-1.9873 14.805-3.3077 23.705-3.8187 2.7349-0.15701-1.2073-0.23758 1.6582-0.23758l0.0765 9.2646c-3.7487 0.11199-7.3905 0.29917-9.7411 0.60179-4.7649 0.61344-9.0159 1.4835-12.472 2.5098-3.4565 1.0263-6.0905 2.2331-7.5611 3.2266-1.4707 0.9935-1.6214 1.4742-1.6415 1.6824-0.0201 0.20827 0.0354 0.71198 1.3139 1.7055 1.2786 0.9935 3.6792 2.2003 6.9372 3.2266 6.5161 2.0526 16.331 3.4801 27.355 3.4801s21.144-1.4275 28.057-3.4801c3.4565-1.0263 6.0905-2.2331 7.5612-3.2266 1.4707-0.99349 1.5946-1.4972 1.6147-1.7055 0.0201-0.20827-0.009-0.68892-1.2872-1.6824-1.2786-0.99349-3.6792-2.2002-6.9372-3.2266-3.258-1.0263-7.348-1.8963-12.002-2.5098-4.6535-0.61344-5.0792-0.75252-10.591-0.75252z" sodipodi:nodetypes="csssssssssssssccssscsssssccsscc" inkscape:connector-curvature="0" transform="matrix(1.8213 0 0 1.7505 -239.14 -356.63)"/>
    <path id="path4084" sodipodi:rx="28.336168" sodipodi:ry="6.7760406" style="opacity:.68199;color:#000000;fill:#135f9b" sodipodi:type="arc" d="m317.86 382.77c0 3.7423-12.687 6.776-28.336 6.776-15.65 0-28.336-3.0337-28.336-6.776s12.687-6.776 28.336-6.776c15.65 0 28.336 3.0337 28.336 6.776z" transform="matrix(1.8213 0 0 1.7505 -239.14 -356.63)" sodipodi:cy="382.7662" sodipodi:cx="289.52173"/>
  </g>
  <metadata>
    <rdf:RDF>
      <cc:Work>
        <dc:format>image/svg+xml</dc:format>
        <dc:type rdf:resource="http://purl.org/dc/dcmitype/StillImage"/>
        <cc:license rdf:resource="http://creativecommons.org/licenses/publicdomain/"/>
        <dc:publisher>
          <cc:Agent rdf:about="http://openclipart.org/">
            <dc:title>Openclipart</dc:title>
          </cc:Agent>
        </dc:publisher>
        <dc:title>cornues</dc:title>
        <dc:date>2010-04-03T16:44:34</dc:date>
        <dc:description/>
        <dc:source>https://openclipart.org/detail/36769/-by-yves_guillou</dc:source>
        <dc:creator>
          <cc:Agent>
            <dc:title>yves_guillou</dc:title>
          </cc:Agent>
        </dc:creator>
        <dc:subject>
          <rdf:Bag>
            <rdf:li>chemistry</rdf:li>
            <rdf:li>laboratory</rdf:li>
          </rdf:Bag>
        </dc:subject>
      </cc:Work>
      <cc:License rdf:about="http://creativecommons.org/licenses/publicdomain/">
        <cc:permits rdf:resource="http://creativecommons.org/ns#Reproduction"/>
        <cc:permits rdf:resource="http://creativecommons.org/ns#Distribution"/>
        <cc:permits rdf:resource="http://creativecommons.org/ns#DerivativeWorks"/>
      </cc:License>
    </rdf:RDF>
  </metadata>
</svg>
